<svg id="svg" version="1.1" xmlns="http://www.w3.org/2000/svg" xmlns:xlink="http://www.w3.org/1999/xlink" width="400" height="406.25" viewBox="0, 0, 400,406.25"><g id="svgg"><path id="path0" d="M245.800 37.202 C 237.106 38.020,227.407 40.002,225.222 41.406 C 224.440 41.908,221.871 42.990,219.514 43.809 C 216.801 44.752,214.672 45.772,213.714 46.588 C 212.881 47.296,211.398 48.380,210.417 48.995 C 207.677 50.716,200.425 58.300,199.525 60.387 C 199.101 61.370,198.130 62.936,197.367 63.867 C 192.141 70.244,191.388 88.942,195.987 98.125 C 198.931 104.002,202.359 109.673,204.079 111.512 C 205.099 112.602,206.404 114.425,206.981 115.562 C 207.674 116.930,209.776 119.362,213.187 122.743 L 218.346 127.855 221.334 133.894 C 225.767 142.851,226.039 150.817,222.054 154.987 C 221.207 155.874,219.967 157.410,219.299 158.400 C 217.158 161.574,211.084 164.853,204.157 166.573 C 195.810 168.645,170.296 168.195,161.400 165.817 C 159.420 165.288,154.920 164.296,151.400 163.613 C 143.183 162.018,141.415 161.510,136.800 159.412 C 134.710 158.463,131.456 157.142,129.569 156.478 C 127.681 155.814,125.515 154.940,124.755 154.536 C 123.994 154.131,121.398 152.842,118.986 151.672 C 112.899 148.718,112.334 148.407,111.200 147.388 C 109.167 145.560,103.857 142.283,102.451 141.989 C 101.653 141.823,100.062 141.571,98.915 141.431 L 96.830 141.176 95.612 143.288 C 94.943 144.450,94.236 146.030,94.043 146.800 C 93.849 147.570,93.198 150.270,92.596 152.800 C 91.995 155.330,91.086 158.660,90.576 160.200 C 85.686 174.984,85.827 213.639,90.826 228.476 C 91.252 229.740,91.600 231.083,91.600 231.460 C 91.600 232.656,94.433 242.077,95.118 243.160 C 96.914 245.998,100.969 250.309,103.449 252.016 C 103.916 252.337,105.284 253.351,106.489 254.269 C 107.694 255.186,109.472 256.149,110.440 256.409 C 111.408 256.669,113.001 257.152,113.980 257.483 C 117.300 258.607,121.961 259.074,124.400 258.527 C 125.610 258.255,128.632 257.575,131.115 257.015 C 135.707 255.979,139.325 254.453,141.473 252.645 C 142.129 252.094,144.999 250.843,147.852 249.866 C 150.705 248.888,154.650 247.286,156.619 246.305 C 158.589 245.325,161.550 244.009,163.200 243.381 C 164.850 242.754,167.323 241.421,168.696 240.420 C 175.600 235.386,187.750 235.538,193.703 240.733 C 195.132 241.980,196.942 243.494,197.725 244.097 C 198.509 244.701,199.731 246.285,200.442 247.617 C 201.152 248.950,202.445 250.774,203.314 251.670 C 204.882 253.286,206.380 256.173,207.841 260.395 C 208.258 261.602,209.149 263.412,209.821 264.418 C 211.084 266.308,211.428 267.311,213.591 275.400 C 214.297 278.040,215.295 281.280,215.810 282.600 C 219.263 291.449,219.105 318.306,215.571 323.442 C 214.949 324.346,214.005 326.056,213.472 327.242 C 212.404 329.620,211.147 330.949,208.340 332.664 C 207.317 333.289,205.853 334.300,205.087 334.912 C 201.416 337.841,192.831 337.704,186.870 334.620 C 184.961 333.633,181.725 332.160,179.679 331.347 C 177.632 330.534,175.562 329.439,175.079 328.914 C 174.039 327.785,170.651 325.986,166.666 324.447 C 165.090 323.838,162.630 322.540,161.200 321.562 C 159.472 320.380,157.058 319.269,154.000 318.250 C 151.470 317.406,148.140 316.117,146.600 315.385 C 145.060 314.653,141.294 313.309,138.230 312.398 C 135.167 311.488,131.786 310.300,130.718 309.758 C 116.162 302.382,95.244 302.392,88.407 309.777 C 87.861 310.367,86.781 311.227,86.007 311.689 C 83.905 312.942,82.518 314.335,80.720 317.000 C 79.830 318.320,78.667 319.867,78.136 320.437 C 77.030 321.626,75.896 325.880,75.210 331.409 C 74.173 339.780,73.493 343.876,72.406 348.303 C 71.771 350.887,71.152 353.810,71.029 354.800 C 70.906 355.790,70.456 359.210,70.028 362.400 C 69.600 365.590,69.151 369.370,69.031 370.800 C 67.600 387.723,66.610 397.202,65.972 400.096 C 65.547 402.018,65.200 404.133,65.200 404.796 L 65.200 406.000 232.600 406.000 L 400.000 406.000 400.000 275.200 L 400.000 144.400 398.549 144.400 C 397.315 144.400,396.693 144.782,394.394 146.950 C 392.883 148.375,390.707 149.950,389.458 150.522 C 388.230 151.084,386.365 152.141,385.313 152.870 C 384.261 153.600,382.860 154.407,382.200 154.664 C 381.540 154.921,379.740 155.609,378.200 156.194 C 376.660 156.778,373.748 158.149,371.728 159.240 C 368.770 160.839,366.596 161.608,360.528 163.203 C 356.388 164.292,351.380 165.619,349.400 166.152 C 338.345 169.130,314.071 169.718,301.200 167.318 C 296.164 166.380,289.639 162.744,287.733 159.815 C 287.109 158.855,285.709 157.130,284.622 155.983 C 279.664 150.745,279.615 138.115,284.532 132.371 C 285.289 131.487,286.467 129.714,287.151 128.432 C 287.834 127.150,289.075 125.403,289.909 124.551 C 290.743 123.698,291.741 122.502,292.127 121.893 C 292.513 121.283,293.959 119.573,295.342 118.093 C 296.725 116.612,299.007 113.870,300.414 112.000 C 301.820 110.130,303.707 107.692,304.606 106.583 C 305.505 105.473,306.660 103.493,307.173 102.183 C 307.686 100.872,308.906 98.165,309.884 96.167 C 313.986 87.788,313.437 69.282,308.976 65.580 C 308.659 65.317,308.400 64.954,308.400 64.774 C 308.400 63.445,304.868 57.377,303.690 56.682 C 302.959 56.251,301.636 54.831,300.751 53.527 C 299.626 51.872,298.335 50.631,296.470 49.414 C 295.002 48.456,293.260 47.149,292.600 46.511 C 291.811 45.749,289.619 44.696,286.200 43.438 C 283.340 42.386,280.550 41.288,280.000 40.997 C 274.626 38.155,256.746 36.171,245.800 37.202 " stroke="none" fill="#ffffff" fill-rule="evenodd"></path><path id="path1" d="M0.000 203.000 L 0.000 406.000 32.600 406.000 L 65.200 406.000 65.200 404.796 C 65.200 404.133,65.547 402.018,65.972 400.096 C 66.610 397.202,67.600 387.723,69.031 370.800 C 69.151 369.370,69.600 365.590,70.028 362.400 C 70.456 359.210,70.906 355.790,71.029 354.800 C 71.152 353.810,71.771 350.887,72.406 348.303 C 73.493 343.876,74.173 339.780,75.210 331.409 C 75.896 325.880,77.030 321.626,78.136 320.437 C 78.667 319.867,79.830 318.320,80.720 317.000 C 82.518 314.335,83.905 312.942,86.007 311.689 C 86.781 311.227,87.861 310.367,88.407 309.777 C 95.244 302.392,116.162 302.382,130.718 309.758 C 131.786 310.300,135.167 311.488,138.230 312.398 C 141.294 313.309,145.060 314.653,146.600 315.385 C 148.140 316.117,151.470 317.406,154.000 318.250 C 157.058 319.269,159.472 320.380,161.200 321.562 C 162.630 322.540,165.090 323.838,166.666 324.447 C 170.651 325.986,174.039 327.785,175.079 328.914 C 175.562 329.439,177.632 330.534,179.679 331.347 C 181.725 332.160,184.961 333.633,186.870 334.620 C 192.831 337.704,201.416 337.841,205.087 334.912 C 205.853 334.300,207.317 333.289,208.340 332.664 C 211.147 330.949,212.404 329.620,213.472 327.242 C 214.005 326.056,214.949 324.346,215.571 323.442 C 219.105 318.306,219.263 291.449,215.810 282.600 C 215.295 281.280,214.297 278.040,213.591 275.400 C 211.428 267.311,211.084 266.308,209.821 264.418 C 209.149 263.412,208.258 261.602,207.841 260.395 C 206.380 256.173,204.882 253.286,203.314 251.670 C 202.445 250.774,201.152 248.950,200.442 247.617 C 199.731 246.285,198.509 244.701,197.725 244.097 C 196.942 243.494,195.132 241.980,193.703 240.733 C 187.750 235.538,175.600 235.386,168.696 240.420 C 167.323 241.421,164.850 242.754,163.200 243.381 C 161.550 244.009,158.589 245.325,156.619 246.305 C 154.650 247.286,150.705 248.888,147.852 249.866 C 144.999 250.843,142.129 252.094,141.473 252.645 C 139.325 254.453,135.707 255.979,131.115 257.015 C 128.632 257.575,125.610 258.255,124.400 258.527 C 121.961 259.074,117.300 258.607,113.980 257.483 C 113.001 257.152,111.408 256.669,110.440 256.409 C 109.472 256.149,107.694 255.186,106.489 254.269 C 105.284 253.351,103.916 252.337,103.449 252.016 C 100.969 250.309,96.914 245.998,95.118 243.160 C 94.433 242.077,91.600 232.656,91.600 231.460 C 91.600 231.083,91.252 229.740,90.826 228.476 C 85.827 213.639,85.686 174.984,90.576 160.200 C 91.086 158.660,91.995 155.330,92.596 152.800 C 93.198 150.270,93.849 147.570,94.043 146.800 C 94.236 146.030,94.943 144.450,95.612 143.288 L 96.830 141.176 98.915 141.431 C 100.062 141.571,101.653 141.823,102.451 141.989 C 103.857 142.283,109.167 145.560,111.200 147.388 C 112.334 148.407,112.899 148.718,118.986 151.672 C 121.398 152.842,123.994 154.131,124.755 154.536 C 125.515 154.940,127.681 155.814,129.569 156.478 C 131.456 157.142,134.710 158.463,136.800 159.412 C 141.415 161.510,143.183 162.018,151.400 163.613 C 154.920 164.296,159.420 165.288,161.400 165.817 C 170.296 168.195,195.810 168.645,204.157 166.573 C 211.084 164.853,217.158 161.574,219.299 158.400 C 219.967 157.410,221.207 155.874,222.054 154.987 C 226.039 150.817,225.767 142.851,221.334 133.894 L 218.346 127.855 213.187 122.743 C 209.776 119.362,207.674 116.930,206.981 115.562 C 206.404 114.425,205.099 112.602,204.079 111.512 C 202.359 109.673,198.931 104.002,195.987 98.125 C 191.388 88.942,192.141 70.244,197.367 63.867 C 198.130 62.936,199.101 61.370,199.525 60.387 C 200.425 58.300,207.677 50.716,210.417 48.995 C 211.398 48.380,212.881 47.296,213.714 46.588 C 214.672 45.772,216.801 44.752,219.514 43.809 C 221.871 42.990,224.432 41.913,225.204 41.418 C 233.735 35.939,269.908 35.661,280.000 40.997 C 280.550 41.288,283.340 42.386,286.200 43.438 C 289.619 44.696,291.811 45.749,292.600 46.511 C 293.260 47.149,295.002 48.456,296.470 49.414 C 298.335 50.631,299.626 51.872,300.751 53.527 C 301.636 54.831,302.959 56.251,303.690 56.682 C 304.868 57.377,308.400 63.445,308.400 64.774 C 308.400 64.954,308.659 65.317,308.976 65.580 C 313.437 69.282,313.986 87.788,309.884 96.167 C 308.906 98.165,307.686 100.872,307.173 102.183 C 306.660 103.493,305.505 105.473,304.606 106.583 C 303.707 107.692,301.820 110.130,300.414 112.000 C 299.007 113.870,296.725 116.612,295.342 118.093 C 293.959 119.573,292.513 121.283,292.127 121.893 C 291.741 122.502,290.743 123.698,289.909 124.551 C 289.075 125.403,287.834 127.150,287.151 128.432 C 286.467 129.714,285.289 131.487,284.532 132.371 C 279.615 138.115,279.664 150.745,284.622 155.983 C 285.709 157.130,287.109 158.855,287.733 159.815 C 289.639 162.744,296.164 166.380,301.200 167.318 C 314.071 169.718,338.345 169.130,349.400 166.152 C 351.380 165.619,356.388 164.292,360.528 163.203 C 366.596 161.608,368.770 160.839,371.728 159.240 C 373.748 158.149,376.660 156.778,378.200 156.194 C 379.740 155.609,381.540 154.921,382.200 154.664 C 382.860 154.407,384.261 153.600,385.313 152.870 C 386.365 152.141,388.230 151.084,389.458 150.522 C 390.707 149.950,392.883 148.375,394.394 146.950 C 396.693 144.782,397.315 144.400,398.549 144.400 L 400.000 144.400 400.000 72.200 L 400.000 0.000 200.000 0.000 L 0.000 0.000 0.000 203.000 " stroke="none" fill="#9ccc34" fill-rule="evenodd"></path></g></svg>